<?xml version="1.0" encoding="utf-8"?>
<!-- Svg Vector Icons : http://www.onlinewebfonts.com/icon -->
<!DOCTYPE svg PUBLIC "-//W3C//DTD SVG 1.1//EN" "http://www.w3.org/Graphics/SVG/1.1/DTD/svg11.dtd">
<svg version="1.1" xmlns="http://www.w3.org/2000/svg" xmlns:xlink="http://www.w3.org/1999/xlink" x="0px" y="0px" viewBox="0 0 1000 1000" enable-background="new 0 0 1000 1000" xml:space="preserve">
<metadata> Svg Vector Icons : http://www.onlinewebfonts.com/icon </metadata>
<g><path d="M611.2,895.7c-152,0-282.7-87.3-343.1-213c-22.3-43-48.7-66.4-71.2-76c-61.3-29.8-142.6,3.4-130,98.3c4,91.9,125,110.5,112.7,23.7c1.5-29.6,40.7-39.9,54.1-3.2c39,106.9-133.1,169.7-201.4,53.8C-36,663.4,58.9,471.5,230.6,562.4c36.5,18.5,67.5,57.3,94.3,113.2C379,775.8,486.8,844.2,611.2,844.2c178.6,0,323.3-140.9,323.3-314.7c0-173.8-144.7-314.7-323.3-314.7c-166,0-302.8,121.8-321.2,278.7c-0.8,7.1-39.2,14.5-56.2,5.5c14.7-190.5,177.9-340.7,377.4-340.7C820.4,158.2,990,323.3,990,527C990,730.6,820.4,895.7,611.2,895.7z"/><path d="M325.8,158.2L325.8,158.2c30.3,0,83.7,15,133.9,32.4c-24.8,12.2-51.3,26.6-76,42.9c-24.8,16.3-47.5,34.2-67,51.3c-2.2-56,0.6-105.9,8.1-126.6C325,158.2,325.4,158.2,325.8,158.2 M325.8,104.3c-13.9,0-25.2,2.1-32.8,7.1C242,144.9,269.1,368,269.1,368c-1.1,11.8,5,20.8,16.5,24.4c0,0,54.2-65.4,127.7-113.7c74.5-48.9,168.1-80.8,168.1-80.8c1.1-11.8-5-20.8-16.4-24.4C565,173.5,404.9,104.3,325.8,104.3L325.8,104.3z"/><path d="M886.4,158.2c0.4,0,0.8,0,1.1,0c7.1,20,10.1,67.3,8.2,121c-19.2-17.7-41.2-35.8-65.2-51.6c-23.2-15.3-47.9-28.4-71.3-39.4C807.3,172,857.4,158.2,886.4,158.2 M886.4,104.3c-79.1,0-239.2,69.2-239.2,69.2c-11.5,3.5-17.6,12.5-16.5,24.4c0,0,94.2,25.1,170.1,75c71.9,47.3,125.7,119.5,125.7,119.5c11.5-3.5,17.6-12.5,16.5-24.4c0,0,27.1-223.1-23.8-256.6C911.6,106.4,900.2,104.3,886.4,104.3L886.4,104.3z"/><path d="M233.7,497.9c0,15.6,12.6,28.2,28.2,28.2c15.6,0,28.2-12.6,28.2-28.2c0-15.6-12.6-28.2-28.2-28.2C246.3,469.7,233.7,482.3,233.7,497.9L233.7,497.9L233.7,497.9z"/><path d="M289.2,501.3"/><path d="M289.2,499.6"/><path d="M289.2,499.6"/></g>
</svg>